<mxfile host="app.diagrams.net" modified="2022-11-17T13:44:32.463Z" agent="5.0 (Windows NT 10.0; Win64; x64) AppleWebKit/537.36 (KHTML, like Gecko) Chrome/107.0.0.0 Safari/537.36" etag="OpnjgwZ9nayFrZ5i1sSK" version="20.5.3" type="github">
  <diagram id="BOre7gkhwZPCpXYbug6-" name="第 1 页">
    <mxGraphModel dx="1246" dy="558" grid="0" gridSize="10" guides="1" tooltips="1" connect="1" arrows="1" fold="1" page="0" pageScale="1" pageWidth="3300" pageHeight="4681" math="0" shadow="0">
      <root>
        <mxCell id="0" />
        <mxCell id="1" parent="0" />
      </root>
    </mxGraphModel>
  </diagram>
</mxfile>
